<?xml version="1.0" standalone="no"?>
<!DOCTYPE svg PUBLIC "-//W3C//DTD SVG 20010904//EN"
 "http://www.w3.org/TR/2001/REC-SVG-20010904/DTD/svg10.dtd">
<svg version="1.0" xmlns="http://www.w3.org/2000/svg"
 width="1344.000000pt" height="1344.000000pt" viewBox="0 0 1344.000000 1344.000000"
 preserveAspectRatio="xMidYMid meet">
<metadata>
Created by potrace 1.11, written by Peter Selinger 2001-2013
</metadata>
<g transform="translate(0.000000,1344.000000) scale(0.100000,-0.100000)"
fill="#000000" stroke="none">
<path d="M9063 13238 c-76 -95 -145 -182 -153 -192 -8 -10 -23 -27 -32 -38
-10 -10 -18 -22 -18 -27 0 -5 -3 -11 -7 -13 -5 -1 -30 -30 -56 -63 -26 -33
-54 -67 -62 -76 -7 -10 -37 -48 -66 -85 -30 -38 -56 -71 -59 -74 -24 -22 -90
-110 -90 -119 0 -7 -4 -9 -10 -6 -5 3 -10 2 -10 -3 0 -9 -27 -45 -93 -123 -12
-14 -31 -38 -42 -53 -11 -16 -32 -42 -47 -58 -16 -17 -28 -33 -28 -37 0 -3
-14 -20 -30 -38 -17 -18 -30 -37 -30 -42 0 -6 -3 -11 -8 -11 -4 0 -34 -34 -67
-77 -33 -42 -65 -81 -70 -87 -6 -6 -35 -42 -65 -81 -30 -38 -57 -72 -60 -75
-3 -3 -24 -30 -48 -60 -23 -30 -47 -61 -52 -67 -6 -7 -49 -61 -97 -120 -47
-59 -90 -112 -94 -117 -60 -72 -306 -381 -314 -393 -5 -9 -17 -24 -25 -33 -8
-9 -28 -33 -45 -54 -16 -21 -37 -46 -45 -56 -8 -10 -25 -32 -37 -47 -12 -16
-65 -83 -118 -148 -113 -141 -116 -144 -240 -300 -53 -66 -101 -127 -108 -135
-7 -8 -30 -37 -52 -65 -22 -27 -42 -52 -45 -55 -3 -3 -18 -23 -35 -45 -16 -21
-39 -51 -52 -65 -21 -24 -122 -150 -188 -235 -16 -21 -38 -47 -47 -57 -10 -10
-18 -20 -18 -23 0 -5 -13 -21 -54 -68 -10 -12 -30 -38 -45 -57 -14 -19 -28
-37 -31 -40 -3 -3 -32 -39 -65 -80 -33 -41 -64 -80 -70 -86 -5 -6 -21 -26 -35
-44 -14 -18 -33 -42 -42 -54 -10 -11 -21 -25 -25 -31 -32 -40 -165 -205 -182
-224 -11 -13 -21 -27 -21 -30 0 -3 -14 -20 -30 -38 -17 -18 -30 -37 -30 -42 0
-6 -3 -11 -8 -11 -4 0 -34 -34 -67 -77 -33 -42 -65 -81 -70 -87 -6 -6 -35 -42
-65 -81 -30 -38 -57 -72 -60 -75 -3 -3 -24 -30 -48 -60 -23 -30 -48 -62 -55
-70 -11 -13 -192 -240 -222 -278 -5 -7 -20 -24 -32 -37 -13 -13 -23 -26 -23
-29 0 -6 -12 -21 -54 -69 -10 -12 -30 -38 -45 -57 -14 -19 -32 -41 -39 -48 -7
-8 -25 -30 -40 -50 -15 -21 -29 -39 -32 -42 -4 -3 -105 -129 -225 -280 -121
-151 -224 -280 -230 -287 -5 -6 -21 -26 -35 -44 -14 -18 -41 -52 -60 -74 -19
-23 -44 -54 -55 -69 -11 -15 -28 -37 -38 -49 -10 -12 -28 -35 -40 -50 -12 -15
-31 -38 -42 -51 -11 -12 -29 -35 -40 -50 -21 -28 -25 -33 -124 -156 -59 -71
-70 -94 -53 -102 8 -3 114 -132 172 -207 34 -46 160 -202 174 -217 6 -6 20
-24 31 -40 11 -15 25 -32 30 -38 6 -6 24 -29 40 -51 17 -21 37 -47 45 -56 8
-9 46 -56 84 -105 39 -49 75 -93 80 -99 6 -5 24 -28 41 -50 16 -22 34 -45 40
-51 5 -6 21 -26 35 -44 14 -18 30 -38 35 -44 6 -6 26 -31 45 -56 19 -25 37
-47 40 -50 8 -7 52 -62 80 -100 14 -18 50 -63 80 -100 30 -37 66 -82 80 -100
31 -41 70 -90 88 -108 7 -8 25 -30 40 -50 15 -21 29 -39 32 -42 3 -3 17 -21
32 -42 15 -20 33 -42 40 -50 17 -18 79 -94 124 -154 20 -27 40 -51 43 -54 8
-6 49 -57 81 -100 14 -18 50 -63 80 -100 30 -37 66 -82 80 -100 14 -18 49 -63
78 -99 30 -36 66 -81 80 -100 15 -18 52 -63 82 -100 30 -37 66 -83 80 -101 21
-28 109 -137 152 -189 6 -7 27 -34 46 -60 20 -25 42 -52 49 -59 7 -8 26 -30
41 -50 15 -20 34 -46 44 -57 9 -11 41 -51 72 -90 71 -89 61 -76 141 -176 39
-47 81 -101 95 -119 14 -18 50 -63 80 -100 30 -37 66 -82 80 -100 14 -18 50
-63 80 -100 30 -37 69 -84 85 -105 28 -36 123 -156 144 -181 5 -6 39 -48 76
-95 36 -46 79 -100 95 -119 29 -36 134 -168 148 -185 7 -9 63 -80 102 -128 8
-10 22 -27 30 -37 8 -9 26 -32 40 -50 14 -19 50 -63 80 -100 30 -37 66 -82 80
-100 27 -36 71 -92 80 -100 8 -8 77 -94 116 -146 20 -27 40 -51 43 -54 8 -6
49 -57 81 -100 14 -18 50 -63 80 -100 30 -37 66 -82 80 -100 14 -18 50 -64 80
-101 67 -82 102 -125 132 -164 12 -16 33 -41 46 -55 13 -14 32 -40 43 -57 11
-18 24 -33 29 -33 5 0 11 -8 15 -17 3 -10 22 -37 43 -60 36 -40 47 -54 95
-117 12 -16 47 -59 77 -96 30 -37 66 -82 80 -100 30 -40 72 -93 80 -100 3 -3
19 -23 36 -45 16 -21 36 -47 44 -56 12 -13 63 -77 123 -154 4 -5 25 -30 47
-55 l40 -45 0 6683 c0 3675 -2 6682 -5 6682 -2 0 -66 -78 -142 -172z"/>
</g>
</svg>
